<svg width="46" height="45" viewBox="0 0 46 45" fill="none" xmlns="http://www.w3.org/2000/svg">
<g id="carbon:delivery">
<g id="Vector">
<mask id="path-1-inside-1_523_1415" fill="white">
<path d="M6.125 22.5H23V25.3125H6.125V22.5ZM3.3125 15.4688H17.375V18.2812H3.3125V15.4688Z"/>
</mask>
<path d="M6.125 22.5H23V25.3125H6.125V22.5ZM3.3125 15.4688H17.375V18.2812H3.3125V15.4688Z" fill="#545454"/>
<path d="M6.125 22.5V15.5H-0.875V22.5H6.125ZM23 22.5H30V15.5H23V22.5ZM23 25.3125V32.3125H30V25.3125H23ZM6.125 25.3125H-0.875V32.3125H6.125V25.3125ZM3.3125 15.4688V8.46875H-3.6875V15.4688H3.3125ZM17.375 15.4688H24.375V8.46875H17.375V15.4688ZM17.375 18.2812V25.2812H24.375V18.2812H17.375ZM3.3125 18.2812H-3.6875V25.2812H3.3125V18.2812ZM6.125 29.5H23V15.5H6.125V29.5ZM16 22.5V25.3125H30V22.5H16ZM23 18.3125H6.125V32.3125H23V18.3125ZM13.125 25.3125V22.5H-0.875V25.3125H13.125ZM3.3125 22.4688H17.375V8.46875H3.3125V22.4688ZM10.375 15.4688V18.2812H24.375V15.4688H10.375ZM17.375 11.2812H3.3125V25.2812H17.375V11.2812ZM10.3125 18.2812V15.4688H-3.6875V18.2812H10.3125Z" fill="#545454" mask="url(#path-1-inside-1_523_1415)"/>
</g>
<g id="Vector_2">
<mask id="path-3-inside-2_523_1415" fill="white">
<path d="M42.5737 23.3522L38.3549 13.5084C38.2465 13.2555 38.0663 13.04 37.8366 12.8885C37.6068 12.737 37.3377 12.6563 37.0626 12.6562H32.8438V9.84375C32.8438 9.47079 32.6957 9.1131 32.4319 8.84938C32.1682 8.58566 31.8105 8.4375 31.4376 8.4375H8.93757V11.25H30.0313V28.9069C29.3909 29.2794 28.8304 29.7749 28.3821 30.3647C27.9337 30.9545 27.6062 31.627 27.4185 32.3438H18.5816C18.2394 31.0181 17.4254 29.8629 16.2922 29.0945C15.1591 28.3261 13.7847 27.9973 12.4265 28.1698C11.0683 28.3423 9.81967 29.0043 8.91462 30.0315C8.00957 31.0588 7.51025 32.3809 7.51025 33.75C7.51025 35.1191 8.00957 36.4412 8.91462 37.4685C9.81967 38.4957 11.0683 39.1577 12.4265 39.3302C13.7847 39.5027 15.1591 39.1739 16.2922 38.4055C17.4254 37.6371 18.2394 36.4819 18.5816 35.1562H27.4185C27.7244 36.3631 28.424 37.4336 29.4066 38.1982C30.3892 38.9628 31.5988 39.378 32.8438 39.378C34.0889 39.378 35.2984 38.9628 36.281 38.1982C37.2636 37.4336 37.9632 36.3631 38.2691 35.1562H41.2813C41.6543 35.1562 42.012 35.0081 42.2757 34.7444C42.5394 34.4806 42.6876 34.123 42.6876 33.75V23.9062C42.6875 23.7158 42.6488 23.5273 42.5737 23.3522ZM13.1563 36.5625C12.6001 36.5625 12.0563 36.3975 11.5938 36.0885C11.1313 35.7795 10.7708 35.3402 10.5579 34.8263C10.345 34.3124 10.2893 33.7469 10.3979 33.2013C10.5064 32.6557 10.7743 32.1546 11.1676 31.7613C11.5609 31.3679 12.0621 31.1001 12.6076 30.9915C13.1532 30.883 13.7187 30.9387 14.2326 31.1516C14.7465 31.3645 15.1858 31.7249 15.4948 32.1875C15.8039 32.65 15.9688 33.1937 15.9688 33.75C15.9688 34.4959 15.6725 35.2113 15.1451 35.7387C14.6176 36.2662 13.9022 36.5625 13.1563 36.5625ZM32.8438 15.4688H36.1345L39.1494 22.5H32.8438V15.4688ZM32.8438 36.5625C32.2876 36.5625 31.7438 36.3975 31.2813 36.0885C30.8188 35.7795 30.4583 35.3402 30.2454 34.8263C30.0325 34.3124 29.9768 33.7469 30.0854 33.2013C30.1939 32.6557 30.4618 32.1546 30.8551 31.7613C31.2484 31.3679 31.7496 31.1001 32.2951 30.9915C32.8407 30.883 33.4062 30.9387 33.9201 31.1516C34.434 31.3645 34.8733 31.7249 35.1823 32.1875C35.4914 32.65 35.6563 33.1937 35.6563 33.75C35.6563 34.4959 35.36 35.2113 34.8326 35.7387C34.3051 36.2662 33.5897 36.5625 32.8438 36.5625ZM39.8751 32.3438H38.2691C37.9594 31.1392 37.2586 30.0715 36.2768 29.308C35.295 28.5445 34.0876 28.1285 32.8438 28.125V25.3125H39.8751V32.3438Z"/>
</mask>
<path d="M42.5737 23.3522L38.3549 13.5084C38.2465 13.2555 38.0663 13.04 37.8366 12.8885C37.6068 12.737 37.3377 12.6563 37.0626 12.6562H32.8438V9.84375C32.8438 9.47079 32.6957 9.1131 32.4319 8.84938C32.1682 8.58566 31.8105 8.4375 31.4376 8.4375H8.93757V11.25H30.0313V28.9069C29.3909 29.2794 28.8304 29.7749 28.3821 30.3647C27.9337 30.9545 27.6062 31.627 27.4185 32.3438H18.5816C18.2394 31.0181 17.4254 29.8629 16.2922 29.0945C15.1591 28.3261 13.7847 27.9973 12.4265 28.1698C11.0683 28.3423 9.81967 29.0043 8.91462 30.0315C8.00957 31.0588 7.51025 32.3809 7.51025 33.75C7.51025 35.1191 8.00957 36.4412 8.91462 37.4685C9.81967 38.4957 11.0683 39.1577 12.4265 39.3302C13.7847 39.5027 15.1591 39.1739 16.2922 38.4055C17.4254 37.6371 18.2394 36.4819 18.5816 35.1562H27.4185C27.7244 36.3631 28.424 37.4336 29.4066 38.1982C30.3892 38.9628 31.5988 39.378 32.8438 39.378C34.0889 39.378 35.2984 38.9628 36.281 38.1982C37.2636 37.4336 37.9632 36.3631 38.2691 35.1562H41.2813C41.6543 35.1562 42.012 35.0081 42.2757 34.7444C42.5394 34.4806 42.6876 34.123 42.6876 33.75V23.9062C42.6875 23.7158 42.6488 23.5273 42.5737 23.3522ZM13.1563 36.5625C12.6001 36.5625 12.0563 36.3975 11.5938 36.0885C11.1313 35.7795 10.7708 35.3402 10.5579 34.8263C10.345 34.3124 10.2893 33.7469 10.3979 33.2013C10.5064 32.6557 10.7743 32.1546 11.1676 31.7613C11.5609 31.3679 12.0621 31.1001 12.6076 30.9915C13.1532 30.883 13.7187 30.9387 14.2326 31.1516C14.7465 31.3645 15.1858 31.7249 15.4948 32.1875C15.8039 32.65 15.9688 33.1937 15.9688 33.75C15.9688 34.4959 15.6725 35.2113 15.1451 35.7387C14.6176 36.2662 13.9022 36.5625 13.1563 36.5625ZM32.8438 15.4688H36.1345L39.1494 22.5H32.8438V15.4688ZM32.8438 36.5625C32.2876 36.5625 31.7438 36.3975 31.2813 36.0885C30.8188 35.7795 30.4583 35.3402 30.2454 34.8263C30.0325 34.3124 29.9768 33.7469 30.0854 33.2013C30.1939 32.6557 30.4618 32.1546 30.8551 31.7613C31.2484 31.3679 31.7496 31.1001 32.2951 30.9915C32.8407 30.883 33.4062 30.9387 33.9201 31.1516C34.434 31.3645 34.8733 31.7249 35.1823 32.1875C35.4914 32.65 35.6563 33.1937 35.6563 33.75C35.6563 34.4959 35.36 35.2113 34.8326 35.7387C34.3051 36.2662 33.5897 36.5625 32.8438 36.5625ZM39.8751 32.3438H38.2691C37.9594 31.1392 37.2586 30.0715 36.2768 29.308C35.295 28.5445 34.0876 28.1285 32.8438 28.125V25.3125H39.8751V32.3438Z" fill="#545454"/>
<path d="M42.5737 23.3522L36.1397 26.1096L36.1407 26.112L42.5737 23.3522ZM38.3549 13.5084L44.7889 10.751L44.7887 10.7504L38.3549 13.5084ZM37.0626 12.6562L37.0633 5.65625H37.0626V12.6562ZM32.8438 12.6562H25.8438V19.6562H32.8438V12.6562ZM8.93757 8.4375V1.4375H1.93757V8.4375H8.93757ZM8.93757 11.25H1.93757V18.25H8.93757V11.25ZM30.0313 11.25H37.0313V4.25H30.0313V11.25ZM30.0313 28.9069L33.5514 34.9574L37.0313 32.9329V28.9069H30.0313ZM27.4185 32.3438V39.3438H32.8213L34.1901 34.1173L27.4185 32.3438ZM18.5816 32.3438L11.8039 34.0938L13.1595 39.3438H18.5816V32.3438ZM7.51025 33.75H14.5103H7.51025ZM18.5816 35.1562V28.1562H13.1595L11.8039 33.4062L18.5816 35.1562ZM27.4185 35.1562L34.2039 33.4364L32.8656 28.1562H27.4185V35.1562ZM38.2691 35.1562V28.1562H32.822L31.4837 33.4364L38.2691 35.1562ZM42.6876 23.9062H49.6876V23.9044L42.6876 23.9062ZM32.8438 15.4688V8.46875H25.8438V15.4688H32.8438ZM36.1345 15.4688L42.5679 12.7101L40.7493 8.46875H36.1345V15.4688ZM39.1494 22.5V29.5H49.7674L45.5829 19.7413L39.1494 22.5ZM32.8438 22.5H25.8438V29.5H32.8438V22.5ZM39.8751 32.3438V39.3438H46.8751V32.3438H39.8751ZM38.2691 32.3438L31.4897 34.0872L32.8415 39.3438H38.2691V32.3438ZM32.8438 28.125H25.8438V35.1056L32.8244 35.125L32.8438 28.125ZM32.8438 25.3125V18.3125H25.8438V25.3125H32.8438ZM39.8751 25.3125H46.8751V18.3125H39.8751V25.3125ZM49.0077 20.5948L44.7889 10.751L31.9209 16.2659L36.1397 26.1096L49.0077 20.5948ZM44.7887 10.7504C44.1406 9.23862 43.0632 7.95016 41.6901 7.04467L33.9831 18.7324C33.0693 18.1298 32.3524 17.2724 31.9211 16.2664L44.7887 10.7504ZM41.6901 7.04467C40.3169 6.13918 38.7082 5.65643 37.0633 5.65625L37.0618 19.6562C35.9673 19.6561 34.8968 19.3349 33.9831 18.7324L41.6901 7.04467ZM37.0626 5.65625H32.8438V19.6562H37.0626V5.65625ZM39.8438 12.6562V9.84375H25.8438V12.6562H39.8438ZM39.8438 9.84375C39.8438 7.61429 38.9582 5.47612 37.3817 3.89963L27.4822 13.7991C26.4332 12.7501 25.8438 11.3273 25.8438 9.84375H39.8438ZM37.3817 3.89963C35.8052 2.32315 33.667 1.4375 31.4376 1.4375V15.4375C29.954 15.4375 28.5312 14.8482 27.4822 13.7991L37.3817 3.89963ZM31.4376 1.4375H8.93757V15.4375H31.4376V1.4375ZM1.93757 8.4375V11.25H15.9376V8.4375H1.93757ZM8.93757 18.25H30.0313V4.25H8.93757V18.25ZM23.0313 11.25V28.9069H37.0313V11.25H23.0313ZM26.5112 22.8563C25.0739 23.6926 23.8159 24.8045 22.8095 26.1283L33.9546 34.6011C33.845 34.7452 33.708 34.8663 33.5514 34.9574L26.5112 22.8563ZM22.8095 26.1283C21.8032 27.452 21.0682 28.9616 20.6469 30.5702L34.1901 34.1173C34.1442 34.2925 34.0642 34.4569 33.9546 34.6011L22.8095 26.1283ZM27.4185 25.3438H18.5816V39.3438H27.4185V25.3438ZM25.3594 30.5938C24.5911 27.6185 22.7642 25.0255 20.221 23.3009L12.3635 34.888C12.0866 34.7002 11.8876 34.4178 11.8039 34.0938L25.3594 30.5938ZM20.221 23.3009C17.6777 21.5763 14.5928 20.8384 11.5445 21.2256L13.3085 35.114C12.9765 35.1562 12.6405 35.0758 12.3635 34.888L20.221 23.3009ZM11.5445 21.2256C8.4961 21.6128 5.6936 23.0985 3.66228 25.4041L14.167 34.659C13.9457 34.9101 13.6405 35.0719 13.3085 35.114L11.5445 21.2256ZM3.66228 25.4041C1.63095 27.7098 0.510254 30.6772 0.510254 33.75H14.5103C14.5103 34.0847 14.3882 34.4078 14.167 34.659L3.66228 25.4041ZM0.510254 33.75C0.510254 36.8228 1.63095 39.7902 3.66228 42.0959L14.167 32.841C14.3882 33.0922 14.5103 33.4153 14.5103 33.75H0.510254ZM3.66228 42.0959C5.6936 44.4015 8.4961 45.8872 11.5445 46.2744L13.3085 32.386C13.6405 32.4281 13.9457 32.5899 14.167 32.841L3.66228 42.0959ZM11.5445 46.2744C14.5928 46.6616 17.6777 45.9237 20.221 44.1991L12.3635 32.612C12.6405 32.4242 12.9765 32.3438 13.3085 32.386L11.5445 46.2744ZM20.221 44.1991C22.7642 42.4745 24.5911 39.8815 25.3594 36.9062L11.8039 33.4062C11.8876 33.0822 12.0866 32.7998 12.3635 32.612L20.221 44.1991ZM18.5816 42.1562H27.4185V28.1562H18.5816V42.1562ZM20.6331 36.8761C21.3216 39.5925 22.8962 42.0017 25.1077 43.7227L33.7055 32.6738C33.9519 32.8654 34.1272 33.1338 34.2039 33.4364L20.6331 36.8761ZM25.1077 43.7227C27.3193 45.4436 30.0416 46.378 32.8438 46.378V32.378C33.156 32.378 33.4592 32.4821 33.7055 32.6738L25.1077 43.7227ZM32.8438 46.378C35.6461 46.378 38.3683 45.4436 40.5799 43.7227L31.9821 32.6738C32.2285 32.4821 32.5317 32.378 32.8438 32.378V46.378ZM40.5799 43.7227C42.7915 42.0017 44.3661 39.5925 45.0546 36.8761L31.4837 33.4364C31.5604 33.1338 31.7358 32.8654 31.9821 32.6738L40.5799 43.7227ZM38.2691 42.1562H41.2813V28.1562H38.2691V42.1562ZM41.2813 42.1562C43.5108 42.1562 45.649 41.2706 47.2254 39.6941L37.3259 29.7946C38.375 28.7456 39.7978 28.1562 41.2813 28.1562V42.1562ZM47.2254 39.6941C48.8019 38.1176 49.6876 35.9795 49.6876 33.75H35.6876C35.6876 32.2665 36.2769 30.8437 37.3259 29.7946L47.2254 39.6941ZM49.6876 33.75V23.9062H35.6876V33.75H49.6876ZM49.6876 23.9044C49.6873 22.7657 49.4556 21.6388 49.0067 20.5924L36.1407 26.112C35.8419 25.4157 35.6878 24.6659 35.6876 23.9081L49.6876 23.9044ZM13.1563 29.5625C13.9845 29.5625 14.7941 29.8081 15.4828 30.2682L7.70479 41.9088C9.31845 42.987 11.2156 43.5625 13.1563 43.5625V29.5625ZM15.4828 30.2682C16.1714 30.7283 16.7081 31.3823 17.0251 32.1475L4.09076 37.5051C4.83344 39.2981 6.09114 40.8306 7.70479 41.9088L15.4828 30.2682ZM17.0251 32.1475C17.342 32.9127 17.4249 33.7546 17.2634 34.5669L3.53237 31.8357C3.15375 33.7391 3.34807 35.7121 4.09076 37.5051L17.0251 32.1475ZM17.2634 34.5669C17.1018 35.3792 16.703 36.1254 16.1173 36.711L6.21784 26.8115C4.84554 28.1838 3.91099 29.9322 3.53237 31.8357L17.2634 34.5669ZM16.1173 36.711C15.5317 37.2966 14.7856 37.6955 13.9733 37.857L11.242 24.126C9.33856 24.5047 7.59014 25.4392 6.21784 26.8115L16.1173 36.711ZM13.9733 37.857C13.161 38.0186 12.319 37.9357 11.5538 37.6187L16.9114 24.6844C15.1184 23.9417 13.1454 23.7474 11.242 24.126L13.9733 37.857ZM11.5538 37.6187C10.7887 37.3018 10.1347 36.7651 9.67454 36.0764L21.3151 28.2985C20.2369 26.6848 18.7044 25.4271 16.9114 24.6844L11.5538 37.6187ZM9.67454 36.0764C9.21442 35.3878 8.96882 34.5782 8.96882 33.75H22.9688C22.9688 31.8093 22.3933 29.9121 21.3151 28.2985L9.67454 36.0764ZM8.96882 33.75C8.96882 32.6394 9.41001 31.5743 10.1953 30.789L20.0948 40.6885C21.935 38.8483 22.9688 36.3524 22.9688 33.75H8.96882ZM10.1953 30.789C10.9806 30.0037 12.0457 29.5625 13.1563 29.5625V43.5625C15.7588 43.5625 18.2546 42.5287 20.0948 40.6885L10.1953 30.789ZM32.8438 22.4688H36.1345V8.46875H32.8438V22.4688ZM29.701 18.2274L32.716 25.2587L45.5829 19.7413L42.5679 12.7101L29.701 18.2274ZM39.1494 15.5H32.8438V29.5H39.1494V15.5ZM39.8438 22.5V15.4688H25.8438V22.5H39.8438ZM32.8438 29.5625C33.672 29.5625 34.4816 29.8081 35.1703 30.2682L27.3923 41.9088C29.0059 42.987 30.9031 43.5625 32.8438 43.5625V29.5625ZM35.1703 30.2682C35.8589 30.7283 36.3956 31.3823 36.7126 32.1475L23.7783 37.5051C24.5209 39.2981 25.7786 40.8306 27.3923 41.9088L35.1703 30.2682ZM36.7126 32.1475C37.0295 32.9127 37.1124 33.7546 36.9509 34.5669L23.2199 31.8357C22.8413 33.7391 23.0356 35.7121 23.7783 37.5051L36.7126 32.1475ZM36.9509 34.5669C36.7893 35.3792 36.3905 36.1254 35.8048 36.711L25.9053 26.8115C24.533 28.1838 23.5985 29.9323 23.2199 31.8357L36.9509 34.5669ZM35.8048 36.711C35.2192 37.2966 34.4731 37.6955 33.6608 37.857L30.9295 24.126C29.0261 24.5047 27.2776 25.4392 25.9053 26.8115L35.8048 36.711ZM33.6608 37.857C32.8485 38.0186 32.0065 37.9357 31.2413 37.6187L36.5989 24.6844C34.8059 23.9417 32.8329 23.7474 30.9295 24.126L33.6608 37.857ZM31.2413 37.6187C30.4762 37.3018 29.8222 36.7651 29.362 36.0764L41.0026 28.2985C39.9244 26.6848 38.3919 25.4271 36.5989 24.6844L31.2413 37.6187ZM29.362 36.0764C28.9019 35.3878 28.6563 34.5782 28.6563 33.75H42.6563C42.6563 31.8092 42.0808 29.9121 41.0026 28.2985L29.362 36.0764ZM28.6563 33.75C28.6563 32.6394 29.0975 31.5743 29.8828 30.789L39.7823 40.6885C41.6225 38.8483 42.6563 36.3525 42.6563 33.75H28.6563ZM29.8828 30.789C30.6681 30.0037 31.7332 29.5625 32.8438 29.5625V43.5625C35.4463 43.5625 37.9421 42.5287 39.7823 40.6885L29.8828 30.789ZM39.8751 25.3438H38.2691V39.3438H39.8751V25.3438ZM45.0486 30.6003C44.3528 27.8949 42.779 25.4969 40.5738 23.7821L31.9798 34.8339C31.7383 34.6461 31.5659 34.3835 31.4897 34.0872L45.0486 30.6003ZM40.5738 23.7821C38.3686 22.0673 35.6567 21.1328 32.8633 21.125L32.8244 35.125C32.5184 35.1241 32.2214 35.0218 31.9798 34.8339L40.5738 23.7821ZM39.8438 28.125V25.3125H25.8438V28.125H39.8438ZM32.8438 32.3125H39.8751V18.3125H32.8438V32.3125ZM32.8751 25.3125V32.3438H46.8751V25.3125H32.8751Z" fill="#545454" mask="url(#path-3-inside-2_523_1415)"/>
</g>
</g>
</svg>
